<mxfile host="app.diagrams.net" agent="Mozilla/5.0 (Windows NT 10.0; Win64; x64) AppleWebKit/537.36 (KHTML, like Gecko) Chrome/131.0.0.0 Safari/537.36" version="24.9.0">
  <diagram name="第 1 页" id="GKY6sa39FB1NiVp876ck">
    <mxGraphModel dx="1185" dy="647" grid="1" gridSize="10" guides="1" tooltips="1" connect="1" arrows="1" fold="1" page="1" pageScale="1" pageWidth="827" pageHeight="1169" math="0" shadow="0">
      <root>
        <mxCell id="0" />
        <mxCell id="1" parent="0" />
        <mxCell id="0f8UvQRoiTvZ1Xg8MrcX-10" value="&amp;nbsp; &amp;nbsp; Backend" style="rounded=1;whiteSpace=wrap;html=1;verticalAlign=bottom;align=left;" vertex="1" parent="1">
          <mxGeometry x="330" y="590" width="230" height="170" as="geometry" />
        </mxCell>
        <mxCell id="0f8UvQRoiTvZ1Xg8MrcX-2" value="DAO" style="rounded=0;whiteSpace=wrap;html=1;verticalAlign=bottom;" vertex="1" parent="1">
          <mxGeometry x="350" y="650" width="190" height="90" as="geometry" />
        </mxCell>
        <mxCell id="0f8UvQRoiTvZ1Xg8MrcX-3" value="Service" style="rounded=0;whiteSpace=wrap;html=1;verticalAlign=middle;" vertex="1" parent="1">
          <mxGeometry x="350" y="650" width="130" height="60" as="geometry" />
        </mxCell>
        <mxCell id="0f8UvQRoiTvZ1Xg8MrcX-4" value="Rest API" style="rounded=0;whiteSpace=wrap;html=1;" vertex="1" parent="1">
          <mxGeometry x="350" y="610" width="190" height="40" as="geometry" />
        </mxCell>
        <mxCell id="0f8UvQRoiTvZ1Xg8MrcX-5" value="DB" style="shape=cylinder3;whiteSpace=wrap;html=1;boundedLbl=1;backgroundOutline=1;size=15;" vertex="1" parent="1">
          <mxGeometry x="397.5" y="780" width="95" height="90" as="geometry" />
        </mxCell>
        <mxCell id="0f8UvQRoiTvZ1Xg8MrcX-7" value="" style="endArrow=classic;startArrow=classic;html=1;rounded=0;exitX=0.5;exitY=0;exitDx=0;exitDy=0;exitPerimeter=0;entryX=0.5;entryY=1;entryDx=0;entryDy=0;" edge="1" parent="1" source="0f8UvQRoiTvZ1Xg8MrcX-5" target="0f8UvQRoiTvZ1Xg8MrcX-2">
          <mxGeometry width="50" height="50" relative="1" as="geometry">
            <mxPoint x="442.51" y="780" as="sourcePoint" />
            <mxPoint x="447.49" y="740" as="targetPoint" />
          </mxGeometry>
        </mxCell>
        <mxCell id="0f8UvQRoiTvZ1Xg8MrcX-8" value="Frontend" style="rounded=1;whiteSpace=wrap;html=1;" vertex="1" parent="1">
          <mxGeometry x="350" y="480" width="190" height="70" as="geometry" />
        </mxCell>
        <mxCell id="0f8UvQRoiTvZ1Xg8MrcX-9" value="" style="endArrow=classic;startArrow=classic;html=1;rounded=0;entryX=0.5;entryY=1;entryDx=0;entryDy=0;exitX=0.5;exitY=0;exitDx=0;exitDy=0;" edge="1" parent="1" source="0f8UvQRoiTvZ1Xg8MrcX-4" target="0f8UvQRoiTvZ1Xg8MrcX-8">
          <mxGeometry width="50" height="50" relative="1" as="geometry">
            <mxPoint x="414" y="609.5" as="sourcePoint" />
            <mxPoint x="464" y="559.5" as="targetPoint" />
          </mxGeometry>
        </mxCell>
      </root>
    </mxGraphModel>
  </diagram>
</mxfile>
